<svg width="323" height="100" viewBox="0 0 323 100" fill="none" xmlns="http://www.w3.org/2000/svg">
<g clip-path="url(#clip0_24_1117)">
<path d="M38.6293 7.68311H49.7234V54.1528C49.7234 70.2706 38.2106 80.0042 24.814 80.0042C10.6847 80.0042 -0.200195 69.1194 -0.200195 54.4668C-0.200195 39.2909 10.0565 28.8247 22.6161 28.8247C28.791 28.8247 34.8615 31.6506 38.6293 36.3604V7.68311ZM38.7338 54.4668C38.7338 44.3146 31.7215 38.6629 24.4997 38.6629C16.6504 38.6629 10.7891 45.0472 10.7891 54.4668C10.7891 63.8863 16.9643 70.166 24.814 70.166C32.1402 70.166 38.7338 64.4096 38.7338 54.4668Z" fill="black"/>
<path d="M104.169 54.4667V78.9575H94.4356L93.5982 71.4219C90.0399 76.969 83.8647 80.0042 77.4806 80.0042C64.2931 80.0042 53.9316 69.538 53.9316 54.4667C53.9316 39.8142 64.8165 28.8247 79.155 28.8247C92.7611 28.8247 104.169 38.2443 104.169 54.4667ZM93.2843 54.4667C93.2843 44.5239 86.6907 38.6629 79.155 38.6629C71.2006 38.6629 64.921 45.0472 64.921 54.4667C64.921 63.8863 70.8867 70.1659 79.155 70.1659C86.272 70.1659 93.2843 64.6189 93.2843 54.4667Z" fill="black"/>
<path d="M140.346 29.8711H152.277L125.17 99.5756H113.134L121.821 78.6433L102.877 29.8711H115.227L127.786 65.4632L140.346 29.8711Z" fill="black"/>
<path d="M155.834 78.9576V7.68311H166.824V78.9576H155.834Z" fill="black"/>
<path d="M173.102 14.1719C173.102 10.1948 176.241 7.15967 180.219 7.15967C184.091 7.15967 187.231 10.1948 187.231 14.1719C187.231 18.0445 184.091 21.0796 180.219 21.0796C176.241 21.0796 173.102 18.0445 173.102 14.1719ZM174.672 78.9574V29.8712H185.661V78.9574H174.672Z" fill="black"/>
<path d="M240.293 54.5714V73.8291C240.293 91.6216 229.513 100.622 216.221 100.622C203.766 100.622 194.556 93.4008 192.149 82.202H202.929C204.918 88.0631 210.151 90.889 216.221 90.889C223.861 90.889 229.827 85.8652 229.827 75.0851V71.3172C226.164 76.655 219.675 79.5855 213.5 79.5855C200.94 79.5855 190.684 69.2241 190.684 54.2575C190.684 39.7095 201.568 28.8247 215.802 28.8247C229.199 28.8247 240.293 38.5582 240.293 54.5714ZM229.722 54.2575C229.722 44.4192 223.129 38.6629 215.802 38.6629C207.953 38.6629 201.673 44.9426 201.673 54.2575C201.673 63.5724 207.534 69.852 215.488 69.852C222.814 69.852 229.722 64.305 229.722 54.2575Z" fill="black"/>
<path d="M291.262 49.8617V78.9576H280.168V51.8502C280.168 42.5354 274.935 38.7676 269.493 38.7676C263.527 38.7676 257.456 44.21 257.456 52.6875V78.9576H246.467V7.68311H257.456V36.9883C261.015 31.3366 266.98 28.8247 272.737 28.8247C282.68 28.8247 291.262 35.7324 291.262 49.8617Z" fill="black"/>
<path d="M322.799 39.0815H308.356V60.0138C308.356 67.3401 311.286 69.852 318.822 69.852C319.659 69.852 320.392 69.852 322.485 69.7473V78.8528C320.183 79.3762 318.089 79.6901 315.682 79.6901C305.216 79.6901 297.262 73.3058 297.262 61.2697V13.7534H308.356V29.8713H322.799V39.0815Z" fill="black"/>
</g>
<defs>
<clipPath id="clip0_24_1117">
<rect width="323" height="100" fill="white"/>
</clipPath>
</defs>
</svg>
