<svg width="155" height="38" viewBox="0 0 155 38" fill="none" xmlns="http://www.w3.org/2000/svg">
<g clip-path="url(#clip0_24_1088)">
<path d="M8.90345 31.538H3.07645V16.978H-0.893555V12.238H3.07645V8.864C3.07645 4.867 4.83245 2 10.6434 2C11.8734 2 13.8024 2.248 13.8024 2.248V6.65H11.7754C9.71044 6.65 8.90445 7.28 8.90445 9.02V12.237H13.7244L13.2954 16.977H8.90545V31.537L8.90345 31.538ZM22.2734 11.858C22.1894 11.858 22.1014 11.861 22.0154 11.864C16.6124 11.864 14.1404 15.937 14.1404 21.72C14.1404 29.005 17.3464 31.92 22.0574 31.92C24.7524 31.92 26.5234 30.783 27.6004 28.662V31.54H33.1424V12.24H27.6004V15.207C26.7204 13.297 24.8994 11.881 22.2734 11.858ZM23.6834 16.419C25.9534 16.419 27.3144 18.006 27.3144 20.704L27.3204 23.461C27.3204 25.28 26.1954 27.408 23.6834 27.408C19.8224 27.408 19.9254 23.228 19.9254 21.837C19.9254 17.154 21.9824 16.419 23.6834 16.419ZM35.3804 21.89C35.3804 19.545 35.2684 11.87 45.2434 11.87C49.2474 11.87 50.9194 13.147 50.9194 13.147L49.5754 17.325C49.5754 17.325 47.9054 16.403 45.7304 16.403C42.9434 16.403 41.1654 18.023 41.1654 20.872L41.1684 22.915C41.1684 25.652 42.8844 27.48 45.7364 27.48C47.7184 27.48 49.5454 26.55 49.5454 26.55L50.8854 30.64C50.8854 30.64 49.3564 31.924 45.2714 31.924C35.7734 31.924 35.3814 25.039 35.3814 21.89H35.3804ZM83.4164 11.864C88.8194 11.864 91.3304 15.937 91.3304 21.72C91.3304 29.005 88.1234 31.92 83.4134 31.92C80.7174 31.92 78.7254 30.784 77.6494 28.662V31.54L72.1764 31.538V2.587L77.9864 2.079V14.946C78.8264 12.695 81.5814 11.864 83.4164 11.864ZM81.7874 16.419C79.5174 16.419 77.9874 18.006 77.9874 20.704L77.9814 23.461C77.9784 25.28 79.0414 27.408 81.7874 27.408C85.6484 27.408 85.5454 23.228 85.5454 21.837C85.5454 17.154 83.4884 16.419 81.7874 16.419ZM61.0014 11.879C54.8734 11.879 51.6374 15.229 51.6374 21.18V22.286C51.6374 30.011 56.1814 32 61.5974 32C66.8624 32 69.2464 30.524 69.2464 30.524L68.1584 26.593C68.1584 26.593 65.3554 27.789 62.2944 27.789C59.1214 27.789 57.7564 26.978 57.4064 23.921H69.7104V20.768C69.7104 14.312 66.0804 11.879 61.0014 11.879ZM61.1494 15.816C63.2694 15.816 64.6444 17.12 64.5694 20.144H57.4174C57.5414 16.961 59.0234 15.816 61.1494 15.816ZM102.916 11.853C96.6234 11.853 93.3104 15.408 93.3104 21.778C93.3104 30.519 99.0214 31.926 102.927 31.926C108.645 31.926 112.449 28.84 112.449 21.858C112.449 14.59 108.171 11.853 102.916 11.853ZM102.837 16.435C105.604 16.435 106.701 18.511 106.701 20.874V22.905C106.701 25.768 105.167 27.424 102.826 27.424C100.638 27.424 99.1004 25.874 99.1004 22.905V20.874C99.1004 17.707 100.93 16.434 102.837 16.434V16.435ZM124.024 11.853C117.731 11.853 114.418 15.408 114.418 21.778C114.418 30.519 120.129 31.926 124.035 31.926C129.753 31.926 133.557 28.84 133.557 21.858C133.557 14.59 129.28 11.853 124.024 11.853ZM123.945 16.435C126.712 16.435 127.809 18.511 127.809 20.874V22.905C127.809 25.768 126.275 27.424 123.935 27.424C121.746 27.424 120.208 25.874 120.208 22.905V20.874C120.208 17.707 122.038 16.434 123.945 16.434V16.435ZM135.753 31.538V2.587L141.58 2.079V21.483L147.362 12.237H153.516L147.485 21.814L153.748 31.538H147.576L141.58 22.096V31.538H135.753Z" fill="black"/>
</g>
<defs>
<clipPath id="clip0_24_1088">
<rect width="155" height="38" fill="white"/>
</clipPath>
</defs>
</svg>
