<svg width="589" height="70" viewBox="0 0 589 70" fill="none" xmlns="http://www.w3.org/2000/svg">
<g clip-path="url(#clip0_24_773)">
<path fill-rule="evenodd" clip-rule="evenodd" d="M34.3135 70C15.3627 70 0 54.3302 0 34.9998C0 15.6692 15.3627 0 34.3135 0C36.7817 0 39.1878 0.27062 41.5082 0.7756L49.1653 16.315C45.1896 13.595 40.4288 11.9158 35.2358 11.7327C34.9214 11.7208 34.6054 11.7145 34.2878 11.7145V11.7176C21.686 11.732 11.4746 22.209 11.4746 35.0664C11.4746 47.9328 21.7 58.431 34.3135 58.431C44.9747 58.431 53.9288 50.447 56.4459 41.0412H32.0921V28.9479H55.4959L65.5397 49.4256C60.1301 61.5047 48.1835 70 34.3135 70Z" fill="black"/>
<path fill-rule="evenodd" clip-rule="evenodd" d="M76.6375 69.8028L69.9746 56.3129L97.212 0.72998H110.6L76.6375 69.8028Z" fill="black"/>
</g>
<path d="M574.332 64.1533C567.969 64.1533 560.077 61.093 560.077 49.174V46.5969H570.547V48.0465C570.547 50.7041 570.949 54.0865 574.412 54.0865C576.989 54.0865 577.875 51.9121 577.875 49.2545C577.875 46.4358 576.264 44.1809 573.687 42.0064L568.614 37.6576C565.151 34.6778 560.319 30.4901 560.319 21.4703V21.1481C560.319 11.8062 566.359 5.84668 574.815 5.84668C583.432 5.84668 588.667 10.9203 588.667 20.5844V23.242H578.358V20.5039C578.358 17.8462 577.231 15.8329 574.493 15.8329C571.916 15.8329 570.869 17.9268 570.869 20.4233C570.869 23.8863 574.251 26.4634 576.506 28.5573L581.338 33.0672C585.687 37.0939 588.828 41.2011 588.828 48.4492V48.7713C588.828 57.8716 584.157 64.1533 574.332 64.1533Z" fill="black"/>
<path d="M532.531 63.1868V6.81299H557.98V16.5576H543.725V29.1209H555.161V39.0266H543.725V53.4422H557.98V63.1868H532.531Z" fill="black"/>
<path d="M497.571 63.1868V6.81299H513.275C522.859 6.81299 527.933 11.484 527.933 21.0675V21.6312C527.933 27.8324 524.792 32.6644 520.282 34.3556V34.5167C526.241 35.8858 527.127 40.1541 527.288 45.7914L527.61 57.0662C527.691 58.8379 528.174 61.254 528.98 62.7036V63.1868H517.866C517.061 61.8982 516.577 59.8044 516.497 57.1467L516.175 46.5162C516.094 43.1338 515.047 41.0399 511.262 41.0399H508.765V63.1868H497.571ZM508.765 32.5033H512.309C515.611 32.5033 516.497 30.0873 516.497 27.4297V21.8728C516.497 19.3763 515.45 16.8797 512.309 16.8797H508.765V32.5033Z" fill="black"/>
<path d="M478.448 64.1532C469.187 64.1532 463.63 59.3211 463.63 49.1739V6.81299H474.824V49.1739C474.824 51.3483 475.71 54.0059 478.69 54.0059C481.589 54.0059 482.555 51.6704 482.555 49.0128V6.81299H493.266V48.6907C493.266 58.0326 488.434 64.1532 478.448 64.1532Z" fill="black"/>
<path d="M440.414 63.1868V17.0408H431.152V6.81299H460.869V17.0408H451.608V63.1868H440.414Z" fill="black"/>
<path d="M397.41 63.1868V6.81299H408.524L418.43 36.4495H418.671V6.81299H428.255V63.1868H418.51L407.155 30.8927H406.994V63.1868H397.41Z" fill="black"/>
<path d="M368.191 63.1868V6.81299H393.64V16.5576H379.386V29.1209H390.821V39.0266H379.386V53.4422H393.64V63.1868H368.191Z" fill="black"/>
<path d="M345.062 63.5089L334.189 6.81299H345.464L350.779 42.3285H351.021L356.336 6.81299H366.484L355.773 63.5089H345.062Z" fill="black"/>
<path d="M297.208 63.1868V6.81299H322.657V16.5576H308.402V29.1209H319.838V39.0266H308.402V53.4422H322.657V63.1868H297.208Z" fill="black"/>
<path d="M268.383 63.1868V6.81299H279.577V52.959H293.832V63.1868H268.383Z" fill="black"/>
<path d="M246.846 64.1533C238.309 64.1533 234.282 58.9991 234.282 49.4961V21.3897C234.282 10.9203 241.047 5.84668 249.503 5.84668C257.959 5.84668 263.919 11.323 263.919 20.7455V27.1882H253.208V20.9871C253.208 18.7321 252.322 16.2356 249.342 16.2356C246.362 16.2356 245.476 18.571 245.476 21.0676V49.2545C245.476 51.1068 245.799 54.006 249.181 54.006C251.758 54.006 253.208 52.0732 253.208 49.7377V41.5232H248.376V33.1477H263.919V63.1869H258.603L256.912 59.7239C254.094 63.7506 249.584 64.1533 246.846 64.1533Z" fill="black"/>
<path d="M215.088 64.1533C204.779 64.1533 200.108 58.3548 200.108 49.2545V20.6649C200.108 11.8062 206.148 5.84668 215.249 5.84668C224.349 5.84668 230.228 11.8062 230.228 21.0676V49.335C230.228 58.0327 224.188 64.1533 215.088 64.1533ZM215.088 53.7644C217.906 53.7644 219.034 51.751 219.034 49.174V20.826C219.034 18.41 217.826 16.2356 215.088 16.2356C212.269 16.2356 211.303 18.41 211.303 20.826V49.174C211.303 51.6705 212.269 53.7644 215.088 53.7644Z" fill="black"/>
<path d="M180.915 64.1533C170.607 64.1533 165.936 58.3548 165.936 49.2545V20.6649C165.936 11.8062 171.976 5.84668 181.076 5.84668C190.176 5.84668 196.055 11.8062 196.055 21.0676V49.335C196.055 58.0327 190.015 64.1533 180.915 64.1533ZM180.915 53.7644C183.734 53.7644 184.861 51.751 184.861 49.174V20.826C184.861 18.41 183.653 16.2356 180.915 16.2356C178.096 16.2356 177.13 18.41 177.13 20.826V49.174C177.13 51.6705 178.096 53.7644 180.915 53.7644Z" fill="black"/>
<path d="M144.639 64.1533C136.103 64.1533 132.076 58.9991 132.076 49.4961V21.3897C132.076 10.9203 138.841 5.84668 147.297 5.84668C155.753 5.84668 161.713 11.323 161.713 20.7455V27.1882H151.002V20.9871C151.002 18.7321 150.116 16.2356 147.136 16.2356C144.156 16.2356 143.27 18.571 143.27 21.0676V49.2545C143.27 51.1068 143.593 54.006 146.975 54.006C149.552 54.006 151.002 52.0732 151.002 49.7377V41.5232H146.17V33.1477H161.713V63.1869H156.397L154.706 59.7239C151.888 63.7506 147.378 64.1533 144.639 64.1533Z" fill="black"/>
<defs>
<clipPath id="clip0_24_773">
<rect width="110.6" height="70" fill="white"/>
</clipPath>
</defs>
</svg>
