<svg width="469" height="72" viewBox="0 0 469 72" fill="none" xmlns="http://www.w3.org/2000/svg">
<path fill-rule="evenodd" clip-rule="evenodd" d="M229.594 7.25116C232.126 7.2347 234.042 7.38286 235.905 7.74504C237.375 8.03314 239.568 8.645 240.775 9.10595C241.982 9.56965 243.771 10.4641 244.753 11.0952C245.736 11.7263 247.22 12.9363 248.054 13.7813C248.888 14.6292 250.019 16.1218 250.567 17.1041C251.116 18.0863 251.747 19.5049 251.969 20.2594C252.192 21.0139 252.45 22.3419 252.71 24.7866L238.915 24.6495L238.539 23.4148C238.333 22.737 237.855 21.7795 237.48 21.2883C237.104 20.7972 236.333 20.0838 235.767 19.7024C235.202 19.321 233.998 18.8299 233.092 18.6104C232.187 18.3909 230.705 18.2071 229.8 18.2043C228.894 18.1988 227.473 18.3991 226.644 18.6461C225.679 18.9314 224.814 19.4253 224.244 20.0207C223.467 20.8246 223.352 21.1319 223.352 22.3858C223.354 23.3462 223.537 24.1236 223.901 24.718C224.202 25.2092 224.973 25.939 225.615 26.3424C226.257 26.7457 228.387 27.6018 230.348 28.2493C232.31 28.8941 235.397 29.8736 237.208 30.4278C239.019 30.9793 241.612 31.915 242.97 32.5049C244.328 33.0948 246.229 34.099 247.198 34.7383C248.164 35.3776 249.511 36.5163 250.189 37.2708C250.869 38.0254 251.764 39.3835 252.178 40.289C252.592 41.1944 253.078 42.923 253.256 44.1303C253.495 45.7546 253.503 46.8768 253.281 48.4517C253.119 49.6206 252.743 51.2257 252.447 52.0186C252.15 52.8116 251.434 54.1999 250.853 55.1054C250.271 56.0108 249.124 57.3388 248.304 58.0577C247.483 58.7765 246.01 59.7835 245.028 60.2939C244.045 60.8069 242.38 61.4929 241.324 61.8194C240.267 62.1432 238.045 62.5931 236.385 62.8154C234.363 63.087 232.415 63.1638 230.486 63.0486C228.902 62.9526 226.4 62.637 224.929 62.3517C223.459 62.0636 221.297 61.449 220.128 60.9853C218.959 60.5216 217.137 59.6107 216.081 58.9604C215.024 58.3074 213.359 56.919 212.377 55.8736C211.29 54.7158 210.195 53.1738 209.575 51.9308C209.016 50.8086 208.371 49.0883 208.14 48.1087C207.91 47.1292 207.718 45.6778 207.712 43.4443L221.294 43.4361L221.524 44.8793C221.651 45.675 222.021 46.8686 222.348 47.5353C222.674 48.1993 223.374 49.1322 223.901 49.6096C224.427 50.0843 225.602 50.7702 226.507 51.1324C227.953 51.7113 228.603 51.7909 231.858 51.8019C235.471 51.8128 235.597 51.7936 237.035 50.9897C238.053 50.4217 238.668 49.8483 239.024 49.1377C239.307 48.5724 239.54 47.892 239.537 47.6286C239.537 47.3652 239.4 46.6545 239.233 46.0509C239.041 45.3595 238.511 44.5693 237.795 43.9135C237.169 43.3428 235.795 42.5197 234.738 42.0834C233.682 41.6471 230.719 40.6676 228.153 39.9049C225.588 39.1421 222.378 38.0802 221.02 37.5479C219.661 37.0129 217.749 36.0992 216.767 35.5175C215.784 34.9359 214.303 33.8384 213.474 33.0811C212.646 32.3238 211.57 31.0424 211.084 30.2358C210.601 29.4264 210.014 28.0243 209.781 27.1188C209.548 26.2134 209.359 24.4217 209.361 23.1404C209.364 21.859 209.551 20.0372 209.773 19.0933C209.998 18.1494 210.508 16.7309 210.909 15.938C211.309 15.145 212.388 13.7155 213.31 12.7579C214.229 11.8003 215.724 10.6095 216.63 10.1129C217.535 9.6163 219.14 8.93035 220.196 8.58738C221.253 8.24715 222.981 7.81089 224.038 7.62157C225.094 7.43225 227.594 7.26488 229.594 7.25116ZM438.601 7.24842C440.412 7.23195 442.945 7.40207 444.226 7.62157C445.507 7.84107 447.485 8.34867 448.616 8.75201C449.749 9.1526 451.475 9.90165 452.457 10.4147C453.439 10.9278 455.105 12.0637 456.161 12.9363C457.218 13.8115 458.729 15.3837 459.522 16.4318C460.315 17.48 461.443 19.2662 462.033 20.3966C462.62 21.5298 463.43 23.5053 463.833 24.7866C464.236 26.068 464.741 28.2932 464.958 29.7254C465.172 31.1577 465.35 33.6902 465.35 35.3502C465.35 37.0102 465.172 39.4796 464.952 40.8377C464.733 42.1959 464.308 44.1111 464.006 45.0906C463.707 46.0701 463.073 47.7383 462.598 48.7947C462.126 49.851 461.1 51.629 460.321 52.7457C459.542 53.8652 458.041 55.5746 456.984 56.5486C455.928 57.5254 454.263 58.7985 453.28 59.3829C452.298 59.9701 450.323 60.8673 448.89 61.3831C447.458 61.899 445.296 62.4752 444.089 62.6672C442.881 62.8565 440.412 63.0075 438.601 63.002C436.79 62.9965 434.444 62.8456 433.388 62.67C432.332 62.4944 430.356 61.9703 428.998 61.5093C427.64 61.0484 425.788 60.2307 424.882 59.6957C423.977 59.1579 422.385 58.0302 421.348 57.1879C420.311 56.3428 418.86 54.8502 418.124 53.8707C417.389 52.8911 416.308 51.1626 415.718 50.0294C415.131 48.8989 414.321 46.9234 413.918 45.6393C413.515 44.3553 413.01 42.1328 412.793 40.7005C412.579 39.2683 412.398 36.552 412.395 34.6642C412.393 32.7216 412.576 30.2248 412.818 28.9023C413.051 27.621 413.498 25.7689 413.808 24.7866C414.118 23.8071 414.738 22.202 415.186 21.2197C415.636 20.2402 416.5 18.6955 417.112 17.79C417.724 16.8846 418.736 15.6087 419.359 14.9557C419.982 14.3027 421.233 13.175 422.138 12.4506C423.044 11.7263 424.649 10.7001 425.705 10.1705C426.762 9.63825 428.427 8.93858 429.409 8.61207C430.392 8.28831 432.12 7.85479 433.251 7.64901C434.384 7.44322 436.79 7.26488 438.601 7.24842ZM434.485 18.9753C433.882 19.1427 432.831 19.6393 432.153 20.0811C431.476 20.5256 430.493 21.3624 429.977 21.9441C429.459 22.5258 428.636 23.8675 428.147 24.9238C427.659 25.9802 427.064 27.8953 426.822 29.1767C426.567 30.5294 426.386 32.9494 426.386 34.9386C426.386 36.8291 426.581 39.4768 426.819 40.8377C427.061 42.2288 427.637 44.1467 428.136 45.2278C428.622 46.2841 429.571 47.7466 430.244 48.4764C430.932 49.2227 432.186 50.1583 433.114 50.6166C434.055 51.0803 435.641 51.5632 436.818 51.7415C438.362 51.9775 439.389 51.9747 440.933 51.7388C442.077 51.5632 443.724 51.0638 444.637 50.6166C445.606 50.1446 446.78 49.2639 447.488 48.4819C448.149 47.7466 449.041 46.4076 449.466 45.5022C449.892 44.5967 450.443 43.1151 450.687 42.2096C450.962 41.2027 451.192 38.961 451.277 36.4477C451.384 33.3609 451.31 31.6982 450.978 29.794C450.737 28.3974 450.295 26.6085 450.002 25.8156C449.708 25.0226 449.049 23.7577 448.539 23.0032C448.029 22.2486 447.003 21.1676 446.262 20.6024C445.518 20.0372 444.294 19.3704 443.54 19.118C442.785 18.8683 441.427 18.5912 440.522 18.5006C439.616 18.4128 438.135 18.4128 437.229 18.5061C436.324 18.5967 435.089 18.8079 434.485 18.9753ZM4.12402 8.32398L17.7057 8.32123L36.089 39.5646L36.218 8.32398H49.9451V61.8276H36.2262L17.8402 30.4114L17.8429 61.8276H4.12402L4.12402 8.32398ZM299.327 8.32398H313.073L313.076 26.6387C313.079 41.8666 313.147 45.2086 313.482 46.4625C313.704 47.2938 314.228 48.4654 314.646 49.0691C315.152 49.8007 315.954 50.4391 317.052 50.9842C318.583 51.747 318.912 51.8019 321.716 51.7991C324.331 51.7936 324.935 51.7003 326.221 51.1159C327.072 50.7291 328.104 49.9718 328.633 49.3434C329.144 48.7398 329.766 47.6286 330.016 46.874C330.422 45.6558 330.48 43.4141 330.584 8.32398H344.02L343.971 28.285C343.922 48.0429 343.916 48.2651 343.315 50.2352C342.98 51.3299 342.382 52.8719 341.987 53.6649C341.592 54.4578 340.821 55.7008 340.272 56.4251C339.724 57.1522 338.599 58.258 337.767 58.8808C336.936 59.5036 335.517 60.357 334.612 60.7768C333.707 61.1966 331.978 61.7947 330.771 62.102C329.563 62.4121 327.031 62.8044 325.146 62.9773C322.559 63.216 320.874 63.2132 318.286 62.9718C316.399 62.7989 313.869 62.4038 312.662 62.0965C311.454 61.792 309.726 61.1911 308.82 60.7603C307.915 60.3323 306.557 59.5174 305.802 58.9467C305.048 58.3787 303.964 57.3443 303.391 56.6474C302.82 55.9505 301.988 54.6389 301.541 53.7335C301.094 52.828 300.455 51.0995 300.12 49.8922C299.519 47.7328 299.508 47.3679 299.418 28.0106L299.327 8.32398ZM53.2376 8.32398H65.9276C73.4593 8.32398 79.5669 8.4447 80.9498 8.6203C82.2339 8.78493 84.3932 9.28704 85.7514 9.73428C87.1096 10.1815 89.0851 11.0842 90.1414 11.7372C91.2554 12.4259 92.9703 13.8911 94.2242 15.2218C95.939 17.0437 96.6579 18.0808 97.7088 20.2594C98.4359 21.7685 99.2755 23.9909 99.5718 25.1982C99.8709 26.4055 100.255 28.3206 100.425 29.4511C100.598 30.5842 100.735 33.3609 100.732 35.6246C100.727 38.1132 100.554 40.717 100.293 42.2096C100.055 43.5678 99.6047 45.5433 99.2947 46.5997C98.9846 47.656 98.1588 49.6315 97.4646 50.9897C96.4713 52.9241 95.6894 53.9667 93.8565 55.8105C92.0923 57.5803 90.9728 58.4391 89.3183 59.2841C88.111 59.9042 86.1355 60.689 84.9283 61.0319C82.7909 61.6411 82.3601 61.6575 53.2376 61.8276V8.32398ZM66.9565 50.9897C75.465 50.6934 77.7917 50.4794 78.8234 50.194C79.6931 49.9526 80.9278 49.4038 81.5671 48.973C82.2092 48.5423 83.0927 47.7713 83.5317 47.2582C83.9707 46.7451 84.6813 45.5845 85.1066 44.679C85.5346 43.7736 86.0806 42.1054 86.3221 40.9749C86.602 39.6634 86.7584 37.5726 86.7556 35.213C86.7556 32.7957 86.591 30.7461 86.2892 29.3139C86.034 28.1066 85.584 26.5619 85.2849 25.8841C84.9886 25.2064 84.3411 24.0925 83.8472 23.4148C83.3506 22.737 82.3436 21.7849 81.6055 21.302C80.8675 20.8219 79.523 20.2347 78.6176 19.9987C77.4185 19.686 75.6159 19.5707 71.9639 19.5707L66.9565 19.5735V50.9897ZM296.613 8.32398V19.5735H281.248V61.8276H267.529V19.5735L252.027 19.4363L251.98 14.2313C251.953 11.3696 251.98 8.86999 252.041 8.67518C252.129 8.39257 256.552 8.32398 296.613 8.32398ZM346.866 8.28008L375.497 8.49409L377.966 9.23765C379.325 9.64648 381.36 10.4367 382.494 10.9937C383.624 11.5507 385.262 12.596 386.129 13.3204C386.996 14.042 388.264 15.3453 388.941 16.2123C389.622 17.0794 390.601 18.5912 391.123 19.5735C391.641 20.5557 392.325 22.0977 392.64 23.0032C392.956 23.9086 393.384 25.3903 393.595 26.2957C393.806 27.2012 394.127 29.3002 394.308 30.9601C394.498 32.7024 394.569 35.4297 394.478 37.408C394.393 39.2957 394.133 41.8255 393.899 43.0328C393.669 44.24 393.216 46.0317 392.898 47.0112C392.577 47.9908 391.866 49.7111 391.315 50.8333C390.763 51.9528 389.627 53.6814 388.791 54.6746C387.951 55.6651 386.656 56.9437 385.91 57.5144C385.163 58.0851 383.687 58.9823 382.631 59.5036C381.574 60.0277 379.722 60.7301 378.515 61.0649C376.391 61.652 375.829 61.674 346.825 61.8276L346.866 8.28008ZM360.541 50.8525C366.388 50.8525 369.137 50.7208 370.418 50.5617C371.702 50.4025 373.368 49.9937 374.122 49.648C374.877 49.305 376.092 48.416 376.825 47.6752C377.555 46.9317 378.449 45.675 378.814 44.8848C379.176 44.0919 379.684 42.6102 379.942 41.5923C380.293 40.2122 380.414 38.5823 380.414 35.213C380.414 31.808 380.293 30.2083 379.931 28.7651C379.668 27.7088 379.171 26.2271 378.828 25.4726C378.485 24.718 377.719 23.5602 377.124 22.8989C376.531 22.2404 375.489 21.3816 374.808 20.9893C374.131 20.5996 372.896 20.1222 372.065 19.9302C371.143 19.7161 368.61 19.5789 365.548 19.5762L360.541 19.5735V50.8525ZM396.759 8.32398H410.477V61.8276H396.759V8.32398ZM151.465 8.87273H192.347V21.7685H151.465V8.87273ZM115.521 28.6279H192.347V41.5237H115.521V28.6279ZM115.521 48.9319H192.347V61.8276H115.521V48.9319Z" fill="black"/>
</svg>
