<svg width="183" height="40" viewBox="0 0 183 40" fill="none" xmlns="http://www.w3.org/2000/svg">
<g clip-path="url(#clip0_24_1094)">
<path d="M13.5031 17.4214C13.5031 15.1874 12.0021 13.2634 9.68307 13.2634H5.89707V21.5784H9.68307C12.0021 21.5784 13.5031 19.6554 13.5031 17.4214ZM0.37307 8.7274H10.3651C15.6521 8.7274 19.0631 12.7474 19.0631 17.4214C19.0631 22.0944 15.6521 26.1144 10.3651 26.1144H5.89707V32.7814H0.37207L0.37307 8.7274ZM35.0581 15.5994L32.1251 25.4964H37.9221L35.0581 15.5994ZM40.2081 32.7814L39.2881 29.8614H30.7971L29.8751 32.7814H23.9751L32.5021 8.7274H37.5831L46.2131 32.7814H40.2081ZM55.4871 13.5384H50.1001V8.7274H66.4371V13.5374H61.0141V32.7814H55.4871V13.5384ZM88.1621 17.4214C88.1621 15.1874 86.6611 13.2634 84.3421 13.2634H80.5561V21.5784H84.3421C86.6611 21.5784 88.1621 19.6554 88.1621 17.4214ZM75.0311 8.7274H85.0591C90.3451 8.7274 93.7561 12.7474 93.7561 17.4214C93.7561 20.7894 91.9821 23.7774 89.0141 25.1874L93.7901 32.7814H87.3781L83.1481 26.1144H80.5561V32.7814H75.0311V8.7274ZM108.66 13.1954V18.6574H117.698V23.0234H108.66V28.3134H117.698V32.7814H103.135V8.7274H117.698V13.1954H108.66ZM146.314 20.7544C146.314 16.8024 143.653 13.1254 139.322 13.1254C134.956 13.1254 132.33 16.8024 132.33 20.7544C132.33 24.7064 134.956 28.3834 139.322 28.3834C143.653 28.3834 146.314 24.7064 146.314 20.7544ZM126.668 20.7544C126.668 14.1564 131.375 8.1084 139.322 8.1084C147.234 8.1084 151.941 14.1564 151.941 20.7544C151.941 27.3524 147.234 33.4004 139.322 33.4004C131.375 33.4004 126.668 27.3524 126.668 20.7544ZM175.509 24.3964V8.7264H181V32.7814H175.237L166.641 17.3174V32.7814H161.116V8.7274H166.879L175.509 24.3964Z" fill="black"/>
</g>
<defs>
<clipPath id="clip0_24_1094">
<rect width="183" height="40" fill="white"/>
</clipPath>
</defs>
</svg>
