<svg width="501" height="88" viewBox="0 0 501 88" fill="none" xmlns="http://www.w3.org/2000/svg">
<path d="M35.0124 38.4653C35.0124 40.4043 35.8203 41.8854 37.4361 42.9087C39.1057 43.932 42.1218 44.6053 46.4844 44.9284C51.1701 45.3054 54.7248 46.4365 57.1485 48.3215C59.626 50.1528 60.8648 52.8457 60.8648 56.4004V56.8851C60.8648 58.8241 60.4608 60.5745 59.6529 62.1364C58.8989 63.6445 57.8217 64.9371 56.4214 66.0143C55.0749 67.0914 53.4053 67.8993 51.4125 68.4379C49.4736 69.0304 47.3461 69.3266 45.0302 69.3266C41.9064 69.3266 39.2134 68.9227 36.9513 68.1148C34.7431 67.253 32.885 66.1489 31.3769 64.8024C29.9227 63.4021 28.8186 61.8402 28.0646 60.1167C27.3105 58.3393 26.8797 56.562 26.772 54.7846L32.7503 53.3304C33.0196 56.4004 34.2045 58.8779 36.305 60.763C38.4055 62.5942 41.2062 63.5098 44.707 63.5098C47.6693 63.5098 50.0391 62.9443 51.8164 61.8133C53.6476 60.6284 54.5632 58.9857 54.5632 56.8851C54.5632 54.6231 53.6746 53.0073 51.8972 52.0378C50.1199 51.0684 47.2384 50.449 43.2528 50.1797C38.621 49.8565 35.0663 48.7794 32.5887 46.9481C30.1112 45.1169 28.8725 42.4509 28.8725 38.9501V38.4653C28.8725 36.5803 29.2764 34.9376 30.0843 33.5372C30.8922 32.083 31.9694 30.8712 33.3158 29.9017C34.7162 28.9323 36.2781 28.2052 38.0016 27.7204C39.7251 27.2357 41.5293 26.9933 43.4144 26.9933C46.0535 26.9933 48.3695 27.3704 50.3622 28.1244C52.355 28.8246 54.0247 29.7671 55.3711 30.952C56.7176 32.083 57.7409 33.4026 58.4411 34.9106C59.1951 36.4187 59.6799 37.9267 59.8953 39.4348L53.9169 40.889C53.6476 38.3038 52.5974 36.284 50.7662 34.8298C48.9888 33.3756 46.646 32.6486 43.7376 32.6486C42.6065 32.6486 41.5024 32.7832 40.4252 33.0525C39.4019 33.2679 38.4863 33.618 37.6784 34.1027C36.8705 34.5875 36.2242 35.2069 35.7395 35.9609C35.2548 36.6611 35.0124 37.4959 35.0124 38.4653ZM71.3111 62.3788H85.8531V17.4603H71.7958V11.6435H92.1546V62.3788H106.697V68.1956H71.3111V62.3788ZM128.373 16.1677C128.373 14.6058 128.911 13.2862 129.988 12.209C131.119 11.078 132.466 10.5125 134.028 10.5125C135.59 10.5125 136.909 11.078 137.986 12.209C139.117 13.2862 139.683 14.6058 139.683 16.1677C139.683 17.7296 139.117 19.0761 137.986 20.2071C136.909 21.2843 135.59 21.8229 134.028 21.8229C132.466 21.8229 131.119 21.2843 129.988 20.2071C128.911 19.0761 128.373 17.7296 128.373 16.1677ZM116.901 62.3788H130.958V33.9412H118.355V28.1244H137.259V62.3788H150.347V68.1956H116.901V62.3788ZM166.853 68.1956H160.551V28.1244H166.853V34.9106H167.822C170.3 29.6324 174.608 26.9933 180.748 26.9933C185.38 26.9933 189.069 28.4475 191.816 31.3559C194.563 34.2105 195.936 38.5192 195.936 44.2821V68.1956H189.635V45.5747C189.635 41.3737 188.692 38.223 186.807 36.1225C184.922 34.022 182.364 32.9717 179.132 32.9717C175.308 32.9717 172.292 34.2913 170.084 36.9303C167.93 39.5156 166.853 42.9895 166.853 47.3521V68.1956ZM235.628 62.0556H234.659C233.366 64.4793 231.589 66.3105 229.327 67.5492C227.119 68.7341 224.695 69.3266 222.056 69.3266C219.363 69.3266 216.831 68.8688 214.462 67.9532C212.092 67.0376 209.991 65.718 208.16 63.9945C206.383 62.2711 204.956 60.1436 203.878 57.6122C202.855 55.027 202.343 52.0917 202.343 48.8063V47.5137C202.343 44.2821 202.882 41.4007 203.959 38.8693C205.036 36.284 206.464 34.1297 208.241 32.4062C210.018 30.6288 212.092 29.2824 214.462 28.3668C216.831 27.4511 219.309 26.9933 221.894 26.9933C224.803 26.9933 227.334 27.6397 229.488 28.9323C231.697 30.171 233.42 32.0022 234.659 34.4259H235.628V28.1244H241.93V78.0518C241.93 79.883 241.337 81.391 240.152 82.5759C239.021 83.7608 237.54 84.3533 235.709 84.3533H209.614V78.5365H233.447C234.901 78.5365 235.628 77.7286 235.628 76.1128V62.0556ZM222.217 63.3482C224.102 63.3482 225.853 62.9982 227.469 62.298C229.084 61.5978 230.485 60.6014 231.67 59.3088C232.908 58.0162 233.878 56.4812 234.578 54.7039C235.278 52.8726 235.628 50.8529 235.628 48.6447V47.6752C235.628 45.5209 235.278 43.555 234.578 41.7777C233.878 39.9465 232.908 38.3845 231.67 37.0919C230.485 35.7993 229.057 34.8029 227.388 34.1027C225.772 33.3487 224.049 32.9717 222.217 32.9717C220.332 32.9717 218.555 33.3218 216.885 34.022C215.27 34.7221 213.842 35.7185 212.604 37.0111C211.419 38.3038 210.476 39.8387 209.776 41.6161C209.13 43.3934 208.806 45.3593 208.806 47.5137V48.8063C208.806 51.0684 209.13 53.0881 209.776 54.8654C210.476 56.6428 211.419 58.1778 212.604 59.4704C213.842 60.7091 215.27 61.6786 216.885 62.3788C218.501 63.0251 220.278 63.3482 222.217 63.3482ZM258.112 38.4653C258.112 40.4043 258.92 41.8854 260.536 42.9087C262.205 43.932 265.222 44.6053 269.584 44.9284C274.27 45.3054 277.825 46.4365 280.248 48.3215C282.726 50.1528 283.964 52.8457 283.964 56.4004V56.8851C283.964 58.8241 283.561 60.5745 282.753 62.1364C281.999 63.6445 280.921 64.9371 279.521 66.0143C278.175 67.0914 276.505 67.8993 274.512 68.4379C272.573 69.0304 270.446 69.3266 268.13 69.3266C265.006 69.3266 262.313 68.9227 260.051 68.1148C257.843 67.253 255.985 66.1489 254.477 64.8024C253.022 63.4021 251.918 61.8402 251.164 60.1167C250.41 58.3393 249.979 56.562 249.872 54.7846L255.85 53.3304C256.119 56.4004 257.304 58.8779 259.405 60.763C261.505 62.5942 264.306 63.5098 267.807 63.5098C270.769 63.5098 273.139 62.9443 274.916 61.8133C276.747 60.6284 277.663 58.9857 277.663 56.8851C277.663 54.6231 276.774 53.0073 274.997 52.0378C273.22 51.0684 270.338 50.449 266.353 50.1797C261.721 49.8565 258.166 48.7794 255.688 46.9481C253.211 45.1169 251.972 42.4509 251.972 38.9501V38.4653C251.972 36.5803 252.376 34.9376 253.184 33.5372C253.992 32.083 255.069 30.8712 256.416 29.9017C257.816 28.9323 259.378 28.2052 261.101 27.7204C262.825 27.2357 264.629 26.9933 266.514 26.9933C269.153 26.9933 271.469 27.3704 273.462 28.1244C275.455 28.8246 277.124 29.7671 278.471 30.952C279.817 32.083 280.841 33.4026 281.541 34.9106C282.295 36.4187 282.78 37.9267 282.995 39.4348L277.017 40.889C276.747 38.3038 275.697 36.284 273.866 34.8298C272.089 33.3756 269.746 32.6486 266.837 32.6486C265.706 32.6486 264.602 32.7832 263.525 33.0525C262.502 33.2679 261.586 33.618 260.778 34.1027C259.97 34.5875 259.324 35.2069 258.839 35.9609C258.354 36.6611 258.112 37.4959 258.112 38.4653ZM300.712 68.1956H294.411V11.6435H300.712V35.3954H301.682C302.921 32.8101 304.644 30.7635 306.852 29.2554C309.114 27.7474 311.861 26.9933 315.093 26.9933C319.455 26.9933 322.983 28.4475 325.676 31.3559C328.423 34.2105 329.796 38.5192 329.796 44.2821V68.1956H323.495V45.5747C323.495 41.3737 322.552 38.223 320.667 36.1225C318.782 34.022 316.224 32.9717 312.992 32.9717C309.168 32.9717 306.152 34.2913 303.944 36.9303C301.79 39.5156 300.712 42.9895 300.712 47.3521V68.1956ZM376.84 48.6447C376.84 51.984 376.274 54.9462 375.143 57.5315C374.066 60.0628 372.612 62.2172 370.781 63.9945C368.95 65.718 366.795 67.0376 364.318 67.9532C361.894 68.8688 359.363 69.3266 356.724 69.3266C354.031 69.3266 351.472 68.8688 349.049 67.9532C346.625 67.0376 344.498 65.718 342.666 63.9945C340.835 62.2172 339.354 60.0628 338.223 57.5315C337.146 54.9462 336.607 51.984 336.607 48.6447V47.6752C336.607 44.3898 337.146 41.4814 338.223 38.9501C339.354 36.3648 340.835 34.1835 342.666 32.4062C344.551 30.6288 346.706 29.2824 349.129 28.3668C351.553 27.4511 354.084 26.9933 356.724 26.9933C359.363 26.9933 361.894 27.4511 364.318 28.3668C366.741 29.2824 368.869 30.6288 370.7 32.4062C372.585 34.1835 374.066 36.3648 375.143 38.9501C376.274 41.4814 376.84 44.3898 376.84 47.6752V48.6447ZM356.724 63.3482C358.662 63.3482 360.44 63.0251 362.056 62.3788C363.725 61.6786 365.179 60.6822 366.418 59.3896C367.657 58.097 368.626 56.562 369.327 54.7846C370.027 52.9534 370.377 50.9068 370.377 48.6447V47.6752C370.377 45.5209 370.027 43.555 369.327 41.7777C368.626 39.9465 367.657 38.3845 366.418 37.0919C365.179 35.7993 363.725 34.8029 362.056 34.1027C360.386 33.3487 358.609 32.9717 356.724 32.9717C354.838 32.9717 353.061 33.3487 351.391 34.1027C349.722 34.8029 348.268 35.7993 347.029 37.0919C345.79 38.3845 344.821 39.9465 344.12 41.7777C343.42 43.555 343.07 45.5209 343.07 47.6752V48.6447C343.07 50.9068 343.42 52.9534 344.12 54.7846C344.821 56.562 345.79 58.097 347.029 59.3896C348.268 60.6822 349.695 61.6786 351.311 62.3788C352.98 63.0251 354.785 63.3482 356.724 63.3482ZM382.277 28.1244H394.88V11.6435H401.182V28.1244H416.693V33.9412H401.182V59.9551C401.182 61.5709 401.909 62.3788 403.363 62.3788H414.754V68.1956H401.101C399.27 68.1956 397.762 67.6031 396.577 66.4182C395.446 65.2333 394.88 63.7253 394.88 61.894V33.9412H382.277V28.1244Z" fill="black"/>
<path d="M458.601 57.5525H441.636L438.752 67.3926H433.662L445.651 27.8061H454.586L466.575 67.3926H461.486L458.601 57.5525ZM449.779 29.842L442.936 53.1415H457.301L450.458 29.842H449.779ZM468.798 27.8061H493.907V32.2172H483.728V62.9815H493.907V67.3926H468.798V62.9815H478.977V32.2172H468.798V27.8061Z" fill="black"/>
<path d="M5.91218 7.96784L5.91218 37.5898L0.525604 37.5898L0.525607 7.96784L0.532717 7.69063C0.676745 4.84467 3.03043 2.58127 5.91218 2.58127L35.5342 2.58127L35.5342 7.96784L5.91218 7.96784Z" fill="black"/>
</svg>
