<svg width="449" height="95" viewBox="0 0 449 95" fill="none" xmlns="http://www.w3.org/2000/svg">
<path d="M86.7601 35.6045L97.6986 23.8382C98.4953 22.9778 99.8949 23.7952 99.5504 24.9137L94.8133 40.2509C94.6195 40.8532 94.9855 41.4985 95.61 41.6491L111.286 45.2198C112.427 45.478 112.427 47.0913 111.286 47.3494L95.61 50.9202C94.9855 51.0707 94.6195 51.6946 94.8133 52.3184L99.5504 67.6555C99.8949 68.7741 98.4953 69.57 97.6986 68.731L86.7817 56.9647C86.351 56.4914 85.5974 56.4914 85.1668 56.9647L74.2498 68.731C73.4531 69.5915 72.0535 68.7741 72.3981 67.6555L77.1352 52.3829C77.329 51.7376 76.9414 51.0707 76.2954 50.9202L4.01126 47.3709C2.82698 47.0913 2.82698 45.4134 4.01126 45.1338L76.2954 41.6275C76.9414 41.477 77.329 40.8101 77.1352 40.1648L72.3981 24.8922C72.0535 23.7737 73.4531 22.9778 74.2498 23.8167L85.1668 35.583C85.5974 36.0563 86.351 36.0563 86.7817 35.583L86.7601 35.6045Z" fill="black"/>
<path d="M444.083 61.4858C443.268 69.4752 437.969 76.3233 425.088 76.3233C411.065 76.3233 404.625 68.2523 404.625 54.9638C404.625 41.6752 411.31 33.6858 425.332 33.6858C438.784 33.6858 444.491 41.6752 444.491 54.9638V57.8987H415.794C416.365 65.3174 419.381 68.0893 425.169 68.0893C431.039 68.0893 433.24 65.3174 433.729 61.4858H444.083ZM415.875 51.1321H433.322C433.322 44.8547 431.365 41.9198 425.332 41.9198C419.299 41.9198 416.446 44.7732 415.875 51.1321Z" fill="black"/>
<path d="M341.526 18.4409H358.402L370.631 58.5511L382.859 18.4409H399.735V75.5083H388.729V33.7676L375.685 75.5083H365.576L352.532 33.7676V75.5083H341.526V18.4409Z" fill="black"/>
<path d="M331.892 43.8766C327.082 43.8766 324.147 45.9147 324.147 51.0507V75.5082H313.142V34.7458H323.984V40.1264C325.778 36.7839 328.387 34.4197 334.827 34.4197H338.251V43.8766H331.892Z" fill="black"/>
<path d="M308.672 61.4858C307.857 69.4752 302.558 76.3233 289.677 76.3233C275.654 76.3233 269.214 68.2523 269.214 54.9638C269.214 41.6752 275.899 33.6858 289.921 33.6858C303.373 33.6858 309.08 41.6752 309.08 54.9638V57.8987H280.383C280.953 65.3174 283.97 68.0893 289.758 68.0893C295.628 68.0893 297.829 65.3174 298.318 61.4858H308.672ZM280.464 51.1321H297.911C297.911 44.8547 295.954 41.9198 289.921 41.9198C283.888 41.9198 281.035 44.7732 280.464 51.1321Z" fill="black"/>
<path d="M249.372 33.6858C260.378 33.6858 266.737 39.9632 266.737 54.7192C266.737 71.1057 258.258 75.508 249.617 75.508C243.421 75.508 240.404 73.4699 238.04 70.6981V90.9978H227.034V34.7456H237.469V39.2295C239.263 36.1315 241.953 33.6858 249.372 33.6858ZM237.714 54.4746C237.714 63.9315 239.997 67.274 246.682 67.274C253.367 67.274 255.649 63.9315 255.649 54.4746C255.649 45.9145 253.367 41.9198 246.682 41.9198C239.997 41.9198 237.714 45.9145 237.714 54.4746Z" fill="black"/>
<path d="M221.354 75.508H210.511V70.8611C208.717 74.2036 204.478 76.5679 198.037 76.5679C188.254 76.5679 184.26 71.2687 184.26 63.9315V34.7456H195.266V60.752C195.266 65.8881 197.874 67.9262 202.603 67.9262C207.413 67.9262 210.348 65.8881 210.348 60.752V34.7456H221.354V75.508Z" fill="black"/>
<path d="M156.616 76.5679C142.104 76.5679 132.566 71.4319 131.832 56.1867H143.816C143.816 63.85 146.751 67.9263 156.126 67.9263C165.257 67.9263 167.458 65.3175 167.458 59.3662C167.458 54.6377 165.909 52.355 160.366 51.3767L148.219 49.1756C138.028 47.3005 133.299 43.3058 133.299 33.1967C133.299 22.4354 142.593 17.4624 154.822 17.4624C168.763 17.4624 177.567 23.1691 177.567 35.5609H166.236C166.236 28.8759 162.811 26.1856 155.393 26.1856C147.403 26.1856 145.039 28.6313 145.039 33.4413C145.039 38.0882 147.159 39.0665 152.05 40.0448L165.828 42.8166C173.654 44.3656 179.361 47.9527 179.361 59.7738C179.361 71.6764 169.823 76.5679 156.616 76.5679Z" fill="black"/>
</svg>
