<svg width="486" height="76" viewBox="0 0 486 76" fill="none" xmlns="http://www.w3.org/2000/svg">
<path d="M102.805 37.6652L94.8389 6.1891C92.7377 -2.10559 80.8942 -2.04532 78.8762 6.26444L71.2425 37.6652H67.1838L59.2176 6.1891C57.1165 -2.10559 45.2729 -2.04532 43.2549 6.26444L35.6213 37.6652H31.5626L23.5963 6.1891C21.4952 -2.10559 9.65168 -2.04532 7.63367 6.26444L0 37.6652H17.8069L25.7731 69.1413C27.8818 77.436 39.7177 77.3757 41.7358 69.066L49.3694 37.6652H53.4281L61.3943 69.1413C63.503 77.436 75.339 77.3757 77.357 69.066L84.9907 37.6652H102.798H102.805Z" fill="black"/>
<path d="M208.943 21.1512C195.082 21.1512 189.119 32.03 189.119 42.2609C189.119 52.4917 193.812 63.6041 208.875 63.6041C223.939 63.6041 228.572 52.4616 228.572 42.2609C228.572 32.0601 222.805 21.1512 208.943 21.1512ZM208.883 55.219C201.144 55.219 198.619 49.4707 198.619 42.3739C198.619 35.2771 200.403 29.5288 208.883 29.5288C217.363 29.5288 219.147 35.2771 219.147 42.3739C219.147 49.4707 216.622 55.219 208.883 55.219ZM255.864 21.5581H258.373V30.7417H253.944C246.983 30.7417 244.708 36.1585 244.708 42.4869V62.7829H235.057L234.973 21.9573H244.414V27.7207H246.016C246.734 25.7318 249.999 21.5505 255.864 21.5505V21.5581ZM176.187 21.9498H187.146C187.146 21.9498 181.341 50.5556 180.313 55.5504C179.285 60.5529 175.446 63.5965 170.254 63.5965C165.061 63.5965 161.471 60.6508 160.284 55.0382L155.508 32.9114H153.905L149.265 55.008C148.071 60.6433 144.39 63.5965 139.371 63.5965C134.353 63.5965 130.642 61.0124 129.44 55.6484L122.056 21.9498H133.015L138.615 55.2265H140.218L147.935 21.9498H161.804L169.43 55.2265H171.032L176.194 21.9498H176.187ZM486 42.2609C486 32.0601 480.233 21.1512 466.372 21.1512C452.51 21.1512 446.547 32.03 446.547 42.2609C446.547 52.4917 451.241 63.6041 466.304 63.6041C477.361 63.6041 483.09 57.351 485.063 49.7871H475.23C473.847 53.3054 470.65 55.2265 466.561 55.2265C460.492 55.2265 456.758 52.3787 456.108 44.295H485.932C485.978 43.6169 486 42.9389 486 42.2609ZM456.373 37.6653C457.453 31.4725 461.127 29.5288 466.274 29.5288C471.421 29.5288 475.306 31.5102 476.25 37.6653H456.373ZM439.261 54.4128H442.972V62.7904H437.666C427.969 62.7904 422.86 59.129 422.86 49.0111V30.3424H415.37V21.9649C420.192 21.9649 424.651 17.7535 424.651 8.62256H434.303C434.303 13.7455 433.305 17.7234 431.023 20.3677V21.9649H442.844V30.3424H432.512V47.8811C432.512 53.3355 435.006 54.4204 439.261 54.4204V54.4128ZM401.108 27.7282H399.505C399.505 27.7282 396.482 21.1512 388.372 21.1512C374.806 21.1512 370.634 32.03 370.634 42.2609C370.634 52.4917 373.438 63.6041 388.501 63.6041C395.855 63.6041 399.135 58.2174 399.49 57.5846H401.1L401.765 62.7904H410.057V21.9649H401.093V27.7282H401.108ZM390.398 55.219C382.659 55.219 380.134 49.4707 380.134 42.3739C380.134 35.2771 381.918 29.5288 390.398 29.5288C398.878 29.5288 400.662 35.2771 400.662 42.3739C400.662 49.4707 398.138 55.219 390.398 55.219ZM361.065 25.1743C363.31 27.8563 364.436 31.691 364.436 36.6783V62.7829H354.784V37.4091C354.784 34.034 353.651 29.5288 348.058 29.5288C342.465 29.5288 340.484 34.034 340.484 39.4432V62.7829H330.75V37.0023C330.75 32.7005 328.694 29.5288 324.106 29.5288C319.518 29.5288 316.45 33.1149 316.45 39.4432V62.7829H306.798L306.715 21.9573H316.155V27.7207H317.757C318.725 25.4605 321.74 21.1437 327.605 21.1437C330.485 21.1437 332.805 21.7012 334.582 22.8087C336.358 23.9161 337.771 25.5585 338.769 27.7207H340.371C341.429 25.6037 344.09 21.1437 350.975 21.1437C354.883 21.1437 358.828 22.4847 361.073 25.1667L361.065 25.1743ZM285.038 42.6074L302.006 62.7904H291.191L277.412 46.1784H274.57V62.7904H264.835V8.68283H274.57V34.26C274.57 36.6859 274.427 37.9741 276.483 37.9741C277.798 37.9741 278.153 37.5598 278.954 36.3845L289.029 21.9649H301.099L285.038 42.6074Z" fill="black"/>
</svg>
