<svg width="724" height="113" viewBox="0 0 724 113" fill="none" xmlns="http://www.w3.org/2000/svg">
<path d="M41.957 70.6582L38.3447 72.7178L34.1963 51.9863L46.0684 46.1846L40.8369 34.5967L58.2441 26.5938L66.4717 44.6074L85.2705 49.9141V53.1162C85.2705 54.328 86.2937 55.3093 87.5557 55.3096H90.2832C86.2854 60.6719 79.8044 63.9969 72.624 63.9971L53.1289 64.001L53.1025 74.6973H59.2871V69.9131L72.625 69.9102C84.8335 69.9101 95.6259 62.2914 99.2676 51.1016L100.28 47.9873L70.96 39.7109L62.2676 20.6816H48.4668V0L27.6416 20.7451C20.2423 21.3044 15.7525 25.6425 14.0371 32.4219L3.16699 69.9131L0.84375 74.6973H41.957V70.6582ZM59.2373 0L52.3574 6.85449V17.0176H59.2373V0ZM56.4014 43.585C56.4213 43.5676 58.6317 41.6364 58.2949 38.1992L49.752 39.1328L56.4014 43.585Z" fill="black"/>
<path d="M32.7474 80.8041L17.2061 86.9871L41.7794 102.057L59.2827 86.5702L59.2837 86.5399L32.7474 80.8041Z" fill="black"/>
<path d="M32.748 80.804L59.2843 86.5398L59.2862 70.2242V70.2166L32.748 80.804Z" fill="black"/>
<path d="M0 76.4347L3.16098 69.9105H59.2858L59.2809 70.2469L17.2072 86.9871L0 76.4347Z" fill="black"/>
<path d="M41.7793 102.057L59.2836 86.5399V112.791L41.7793 102.057Z" fill="black"/>
<path d="M162.771 32.8111L157.689 71.4184L152.607 32.8111H144.857L139.775 71.4184L134.694 32.8111H125.029L134.259 92.8479H144.448L148.697 63.5886L153.02 92.8479H163.206L172.435 32.8111H162.771Z" fill="black"/>
<path d="M231.147 41.4083H235.713C237.047 41.4083 238.579 41.804 238.579 44.8951V57.5308C238.579 60.6206 237.047 61.0163 235.713 61.0163H231.147V41.4083ZM240.004 92.8479H249.341L243.574 68.1358C246.708 66.5224 248.298 63.1231 248.298 58.0191V43.5912C248.298 36.5389 244.797 32.8111 238.173 32.8111H221.429V92.8479H231.147V69.2076H234.656L240.004 92.8479Z" fill="black"/>
<path d="M280.812 84.25H269.605V32.8116H259.887V92.8484H280.812V84.25Z" fill="black"/>
<path d="M300 41.4083H304.905C306.239 41.4083 307.771 41.804 307.771 44.8951V82.3951C307.771 83.3121 307.482 84.2495 305.329 84.2495H300V41.4083ZM317.49 83.6165V44.8139C317.49 36.8497 313.369 32.8111 305.244 32.8111H290.281V92.8479H306.941C313.842 92.8479 317.49 89.6566 317.49 83.6165Z" fill="black"/>
<path d="M193.092 69.4506C191.083 69.4506 190.225 68.6528 190.225 66.7794V44.0803C190.225 42.2069 191.058 41.4078 193.007 41.4078H196.828C198.837 41.4078 199.694 42.2069 199.694 44.0803V66.7794C199.694 68.6528 198.964 69.4506 197.252 69.4506H193.092ZM209.413 67.3502V43.5907C209.413 36.5384 205.765 32.8106 198.865 32.8106H191.055C184.154 32.8106 180.507 36.5384 180.507 43.5907V67.3502C180.507 74.3492 184.183 78.0491 191.139 78.0491H198.78C205.736 78.0491 209.413 74.3492 209.413 67.3502Z" fill="black"/>
<path d="M208.019 92.8484H181.899V84.25H208.019V92.8484Z" fill="black"/>
<path d="M535.959 41.1825H540.524C541.858 41.1825 543.391 41.5782 543.391 44.6693V57.305C543.391 60.3948 541.858 60.7905 540.524 60.7905H535.959V41.1825ZM553.109 57.7933V43.3654C553.109 36.3131 549.608 32.5853 542.985 32.5853H526.24V92.6221H535.959V68.9818H539.467L544.816 92.6221H554.153L548.387 67.91C551.52 66.2966 553.109 62.8973 553.109 57.7933Z" fill="black"/>
<path d="M623.535 80.9455C623.535 83.6738 622.184 84.0239 621.007 84.0239H617.696C616.401 84.0239 614.914 83.6738 614.914 80.9455V32.5855H605.195V80.7007C605.195 88.6117 608.743 92.6223 615.743 92.6223H622.62C629.676 92.6223 633.252 88.6383 633.252 80.7819V32.5855H623.535V80.9455Z" fill="black"/>
<path d="M576.859 69.4504C574.85 69.4504 573.993 68.6526 573.993 66.7792V44.08C573.993 42.2066 574.825 41.4075 576.775 41.4075H580.595C582.604 41.4075 583.462 42.2066 583.462 44.08V66.7792C583.462 68.6526 582.731 69.4504 581.019 69.4504H576.859ZM593.18 67.3499V43.5904C593.18 36.5382 589.533 32.8104 582.633 32.8104H574.822C567.922 32.8104 564.274 36.5382 564.274 43.5904V67.3499C564.274 74.3489 567.951 78.0488 574.907 78.0488H582.548C589.504 78.0488 593.18 74.3489 593.18 67.3499Z" fill="black"/>
<path d="M591.788 92.8484H565.668V84.25H591.788V92.8484Z" fill="black"/>
<path d="M662.588 56.4442L655.213 32.5858H645.692V92.6226H655.411V58.4508L662.588 80.3268V92.6226H672.306V32.5858H662.588V56.4442Z" fill="black"/>
<path d="M694.465 41.1825H699.369C700.704 41.1825 702.236 41.5782 702.236 44.6693V82.1693C702.236 83.0863 701.947 84.0236 699.793 84.0236H694.465V41.1825ZM699.709 32.5853H684.746V92.6221H701.406C708.307 92.6221 711.954 89.4308 711.954 83.3907V44.5881C711.954 36.6239 707.834 32.5853 699.709 32.5853Z" fill="black"/>
<path d="M356.907 41.1825H360.878C362.887 41.1825 363.744 41.9815 363.744 43.8537V60.1576C363.744 62.0297 363.014 62.8288 361.302 62.8288H356.907V41.1825ZM362.83 32.5853H347.188V92.6221H356.907V71.426H362.915C369.816 71.426 373.463 67.7274 373.463 60.7284V43.3654C373.463 36.3131 369.787 32.5853 362.83 32.5853Z" fill="black"/>
<path d="M394.431 32.5853H384.713V92.6221H405.639V84.0236H394.431V32.5853Z" fill="black"/>
<path d="M432.171 43.8539V62.5843H424.4V43.8539C424.4 41.9818 425.232 41.1827 427.182 41.1827H429.389C431.341 41.1827 432.171 41.9818 432.171 43.8539ZM431.342 32.5855H425.23C418.329 32.5855 414.682 36.3133 414.682 43.3656V92.6223H424.4V71.1827H432.171V92.6223H441.89V43.3656C441.89 36.3133 438.243 32.5855 431.342 32.5855Z" fill="black"/>
<path d="M464.293 55.8192L458.709 32.5848H449.007L459.255 70.4438V92.6216H468.972V70.4425L479.047 32.5848H469.334L464.293 55.8192Z" fill="black"/>
<path d="M503.677 32.5853H498.073C491.396 32.5853 487.866 36.3131 487.866 43.3654V82.0056C487.866 88.9513 491.396 92.6221 498.073 92.6221H514.818V62.584H500.855V71.1824H505.1V84.0236H500.365C499.071 84.0236 497.585 83.6279 497.585 80.5381V44.6693C497.585 41.5782 499.071 41.1825 500.365 41.1825H502.404C503.66 41.1825 505.1 41.5782 505.1 44.6693V50.6396H514.818V43.5277C514.818 36.3689 510.966 32.5853 503.677 32.5853Z" fill="black"/>
<path d="M716.445 20.8635C713.343 20.8635 710.82 23.2861 710.82 26.2643C710.82 29.2425 713.343 31.6651 716.445 31.6651C719.547 31.6651 722.07 29.2425 722.07 26.2643C722.07 23.2861 719.547 20.8635 716.445 20.8635ZM716.445 32.5859C712.815 32.5859 709.861 29.7498 709.861 26.2643C709.861 22.7787 712.815 19.9426 716.445 19.9426C720.075 19.9426 723.029 22.7787 723.029 26.2643C723.029 29.7498 720.075 32.5859 716.445 32.5859Z" fill="black"/>
<path d="M713.6 28.7476V24.7547H712.591V24.0482H715.414V24.7547H714.405V28.7476H713.6Z" fill="black"/>
<path d="M719.177 28.7476V25.2912H719.164L718.284 28.7476H717.712L716.811 25.2912H716.798V28.7476H716.089V24.0482H717.187L717.984 27.2027H717.998L718.83 24.0482H719.9V28.7476H719.177Z" fill="black"/>
</svg>
